<svg id="Capa_1" enable-background="new 0 0 512 512" height="512" viewBox="0 0 512 512" width="512" xmlns="http://www.w3.org/2000/svg"><g><path d="m458.489 166.418v239.438c0 4.458-1.515 8.795-4.34 12.244-18.452 22.529-40.671 41.855-65.695 57.014-8.034 4.867-17.276 7.375-26.669 7.375h-117.147c-56.04 0-101.469-45.429-101.469-101.469v-71.228c0-50.856-41.227-92.082-92.082-92.082-26.118 0-44.325-26.019-35.264-50.514 35.994-97.316 129.444-166.772 239.173-167.194 45.731-.176 88.798 11.777 126.129 32.826 48.059 27.098 77.364 78.418 77.364 133.59z" fill="#7cd2e3"/><path d="m389.897 474.234c-38.956 23.952-84.813 37.766-133.897 37.766-2.965 0-5.918-.05-8.858-.15-4.168-.142-7.461-3.594-7.461-7.765v-16.394c0-7.432 6.025-13.457 13.457-13.457h78.222v-103.207h40v103.207z" fill="#8078bf"/><path d="m371.36 382.351v52.319c0 11.046-8.954 20-20 20s-20-8.954-20-20v-52.319c0-11.046 8.954-20 20-20s20 8.955 20 20z" fill="#958fca"/><path d="m330.021 43.616v354.894c0 5.523-4.477 10-10 10h-251.349c-5.523 0-10-4.477-10-10v-354.894c0-5.523 4.477-10 10-10h251.349c5.523 0 10 4.477 10 10z" fill="#453d83"/><path d="m512 256c0 57.143-18.722 109.913-50.367 152.51h-78.733c-103.4 0-187.222-83.822-187.222-187.222v-.451c0-103.4 83.822-187.221 187.222-187.221 77.124 44.105 129.1 127.174 129.1 222.384z" fill="#51489a"/><path d="m468.698 398.511c-4.641 6.913-9.61 13.587-14.885 20h-380.132c-11.028 0-25.009-13.972-25.009-25v-349.895c0-11.028 8.972-20 20-20h294.868c12.38 5.738 24.223 12.437 35.436 20h-330.304v354.895z" fill="#8078bf"/><path d="m462.046 139.461v163.204c0 5.523-4.477 10-10 10h-170.72c-5.523 0-10-4.477-10-10v-163.204c0-5.523 4.477-10 10-10h170.72c5.523 0 10 4.477 10 10z" fill="#8078bf"/><path d="m462.046 139.461v163.204c0 5.523-4.477 10-10 10h-138.204c-5.523 0-10-4.477-10-10v-163.204c0-5.523 4.477-10 10-10h138.205c5.522 0 9.999 4.477 9.999 10z" fill="#958fca"/><path d="m359.177 284.095v5.819c0 5.523-4.477 10-10 10h-6.879c-5.523 0-10-4.477-10-10v-5.819c0-5.523 4.477-10 10-10h6.879c5.523 0 10 4.477 10 10zm-51.896-141.744h-6.879c-5.523 0-10 4.477-10 10v5.819c0 5.523 4.477 10 10 10h6.879c5.523 0 10-4.477 10-10v-5.819c0-5.523-4.477-10-10-10zm41.896 0h-6.879c-5.523 0-10 4.477-10 10v5.819c0 5.523 4.477 10 10 10h6.879c5.523 0 10-4.477 10-10v-5.819c0-5.523-4.477-10-10-10zm-41.896 131.744h-6.879c-5.523 0-10 4.477-10 10v5.819c0 5.523 4.477 10 10 10h6.879c5.523 0 10-4.477 10-10v-5.819c0-5.523-4.477-10-10-10zm125.689-131.744h-6.879c-5.523 0-10 4.477-10 10v5.819c0 5.523 4.477 10 10 10h6.879c5.523 0 10-4.477 10-10v-5.819c0-5.523-4.477-10-10-10zm-41.896 131.744h-6.879c-5.523 0-10 4.477-10 10v5.819c0 5.523 4.477 10 10 10h6.879c5.523 0 10-4.477 10-10v-5.819c0-5.523-4.478-10-10-10zm41.896 0h-6.879c-5.523 0-10 4.477-10 10v5.819c0 5.523 4.477 10 10 10h6.879c5.523 0 10-4.477 10-10v-5.819c0-5.523-4.477-10-10-10zm-41.896-131.744h-6.879c-5.523 0-10 4.477-10 10v5.819c0 5.523 4.477 10 10 10h6.879c5.523 0 10-4.477 10-10v-5.819c0-5.523-4.478-10-10-10z" fill="#453d83"/><path d="m389.804 220.36-42.513 29.872c-2.146 1.508-5.1-.027-5.1-2.649v-59.744c0-2.622 2.954-4.157 5.1-2.649l42.513 29.872c1.836 1.289 1.836 4.008 0 5.298z" fill="#fff5f5"/><path d="m87.939 256.512c0 16.71-13.547 30.257-30.257 30.257-5.583 0-10.812-1.512-15.301-4.148-5.152 9.333-15.091 15.655-26.507 15.655-4.598 0-15.455-23.96-15.767-34.782-.071-2.489-.107-4.987-.107-7.494 0-13.357 1.023-26.475 2.995-39.279 4.654-2.508 9.979-3.931 15.636-3.931 11.817 0 22.183 6.208 28.016 15.541 3.419-1.339 7.141-2.076 11.036-2.076 16.71.001 30.256 13.547 30.256 30.257z" fill="#ff9100"/><path d="m87.939 256.512c0 12.903-8.077 23.92-19.451 28.27-1.565-.598-3.067-1.323-4.494-2.161-.759 1.375-1.623 2.686-2.58 3.92-1.223.15-2.469.229-3.733.229-5.583 0-10.812-1.512-15.301-4.148-2.391 4.331-5.813 8.014-9.934 10.717-4.869-7.599-10.503-22.092-10.726-29.843-.072-2.49-.108-4.988-.108-7.495 0-13.357 1.023-26.475 2.995-39.279 1.541-.83 3.155-1.541 4.83-2.122 7.185 2.488 13.244 7.388 17.208 13.732 3.419-1.339 7.141-2.076 11.036-2.076 3.667 0 7.181.652 10.434 1.847.048.076.096.152.144.229.076-.03.153-.059.229-.088 11.375 4.35 19.451 15.366 19.451 28.268z" fill="#ff9f22"/><path d="m178.307 222.033c-5.111 5.111-11.597 8.011-18.267 8.7.542 8.384-2.39 16.951-8.798 23.359-11.816 11.816-30.974 11.816-42.79 0-6.818-6.818-9.702-16.081-8.652-24.967-2.994-1.439-5.801-3.4-8.283-5.883-11.816-11.816-11.816-30.974 0-42.79s30.974-11.816 42.79 0l.034.034c.378-.423.77-.838 1.176-1.244 11.816-11.816 30.974-11.816 42.79 0s11.816 30.975 0 42.791zm-128.411-66.242c-9.414-7.695-23.135-7.986-32.825-.643-10.901 8.26-13.462 22.577-7.686 33.685-.176.167-.35.337-.523.51-12.276 12.276-11.798 32.476 1.433 44.135 11.388 10.035 28.824 9.954 40.125-.178 10.543-9.452 12.827-24.381 6.852-36.206-1.489-2.947-1.327-6.408.054-9.407 4.898-10.643 2.421-23.844-7.43-31.896z" fill="#ffc14f"/><path d="m41.605 157.646c-7.038 7.038-9.323 18.652-6.858 28.148.843 3.248-.001 6.689-2.295 9.138-5.602 5.978-12.794 18.871 3.815 37.199 2.202 2.43 4.92 4.182 7.693 5.591-11.359 5.77-25.6 3.907-35.097-5.591-11.233-11.231-11.788-29.098-1.666-40.985.526-.618 2.303-1.922.899-5.2-4-9.339-1.547-20.648 6.105-28.3 8.835-8.835 22.323-10.181 32.576-4.039-1.844 1.105-3.583 2.451-5.172 4.039zm94.251 96.447c-6.818-6.818-9.702-16.081-8.652-24.967-2.994-1.439-5.801-3.4-8.283-5.883-11.816-11.816-11.816-30.974 0-42.79 2.319-2.319 4.92-4.182 7.693-5.591-11.359-5.77-25.6-3.907-35.097 5.591-4.131 4.131-6.817 9.159-8.06 14.458 4.235 6.89 5.455 15.109 3.66 22.764 1.218 1.981 2.684 3.852 4.4 5.568 2.482 2.482 5.289 4.443 8.283 5.883-1.05 8.886 1.833 18.149 8.652 24.967 9.498 9.498 23.738 11.361 35.097 5.591-2.773-1.409-5.374-3.273-7.693-5.591z" fill="#ffb52d"/><path d="m225.662 253.706c.085.924.129 1.86.129 2.807 0 16.71-13.547 30.257-30.257 30.257-7.229 0-13.865-2.535-19.069-6.765-5.545 6.312-13.677 10.296-22.739 10.296-16.711 0-30.257-13.547-30.257-30.257 0-9.642 4.511-18.231 11.537-23.772-1.1-3.135-1.698-6.506-1.698-10.017 0-16.71 13.547-30.257 30.257-30.257 10.184 0 19.193 5.032 24.677 12.745 5.484-7.713 14.493-12.745 24.677-12.745 16.711 0 30.257 13.547 30.257 30.257.001 12.159-7.17 22.642-17.514 27.451z" fill="#ff9f22"/><path d="m166.961 226.256v.105c.02 5.972-1.415 11.904-4.739 16.866-3.222 4.809-5.101 10.594-5.101 16.817 0 10.483 5.332 19.721 13.431 25.15-5.15 3.453-11.419 5.365-18.149 5.079-15.388-.655-28.022-13.105-28.886-28.483-.401-7.136 1.673-13.774 5.442-19.133 3.102-4.411 4.608-9.691 4.376-15.078-.057-1.332-.029-2.686.092-4.058 1.268-14.442 12.913-26.109 27.353-27.399 7.282-.651 14.089 1.281 19.61 4.982-8.097 5.431-13.429 14.669-13.429 25.152z" fill="#ff9100"/><path d="m121.166 240.308c12.274 12.274 11.798 32.468-1.426 44.129-11.432 10.079-28.957 9.951-40.253-.281-7.149-6.477-10.455-15.486-9.917-24.305.25-4.101-2.179-7.873-5.923-9.563-3.373-1.523-6.524-3.696-9.264-6.52-11.554-11.909-11.404-30.726.33-42.458 11.816-11.815 30.973-11.815 42.789.001 6.272 6.272 9.214 14.612 8.828 22.825-.198 4.205 2.009 8.238 5.849 9.963 3.259 1.463 6.311 3.533 8.987 6.209zm90.79-54.131c-2.208-2.572-4.813-4.561-7.634-5.967-3.434-1.711-5.629-5.22-5.549-9.056.145-7-2.717-14.05-8.587-19.047-9.099-7.747-22.793-7.61-31.75.301-10.604 9.365-10.981 25.57-1.13 35.42 1.876 1.876 3.982 3.38 6.227 4.514 3.47 1.752 5.741 5.241 5.663 9.128-.128 6.38 2.242 12.801 7.11 17.67 9.856 9.856 26.075 9.473 35.436-1.149 7.924-8.992 8.021-22.72.214-31.814z" fill="#ffd993"/><path d="m210.663 184.782c6.733 6.733 8.688 16.434 5.865 24.891-8.457 2.823-18.158.868-24.891-5.865-4.869-4.869-7.239-11.29-7.11-17.67.078-3.886-2.193-7.376-5.663-9.128-2.245-1.134-4.351-2.639-6.227-4.514-6.733-6.733-8.688-16.434-5.865-24.891 8.457-2.823 18.158-.868 24.891 5.864 4.869 4.869 7.239 11.29 7.11 17.67-.078 3.886 2.193 7.376 5.663 9.128 2.245 1.135 4.351 2.639 6.227 4.515zm-98.484 49.316c-3.84-1.725-6.046-5.758-5.849-9.963.386-8.213-2.556-16.553-8.828-22.825-9.115-9.115-22.598-11.198-33.71-6.251-4.947 11.112-2.864 24.595 6.251 33.71 2.676 2.676 5.729 4.746 8.987 6.21 3.84 1.725 6.046 5.758 5.849 9.963-.386 8.213 2.556 16.553 8.828 22.825 9.115 9.115 22.598 11.198 33.71 6.251 4.947-11.112 2.864-24.595-6.251-33.71-2.676-2.676-5.728-4.746-8.987-6.21zm5.057-123.004c-2.653 0-5.206.425-7.595 1.211-3.693 1.214-7.766.353-10.459-2.45-4.421-4.602-10.637-7.467-17.522-7.467-13.939 0-25.137 11.74-24.245 25.871.755 11.961 10.393 21.736 22.344 22.646 3.313.252 6.498-.161 9.437-1.119 3.702-1.207 7.828-.367 10.526 2.439 4.846 5.04 11.847 7.994 19.522 7.378 11.912-.956 21.498-10.735 22.239-22.662.876-14.121-10.316-25.847-24.247-25.847z" fill="#ffe1aa"/><path d="m122.001 142.375c-6.886 0-13.102-2.864-17.523-7.467-2.693-2.803-6.766-3.664-10.459-2.45-2.39.786-4.943 1.211-7.595 1.211-12.518 0-22.824-9.468-24.15-21.633 4.435-5.861 11.467-9.648 19.384-9.648 6.886 0 13.102 2.865 17.522 7.467 2.693 2.803 6.766 3.665 10.459 2.45 2.39-.786 4.943-1.211 7.595-1.211 12.518 0 22.824 9.468 24.15 21.633-4.434 5.861-11.466 9.648-19.383 9.648z" fill="#ffe7c0"/><path d="m269.978 268.422c-8.274 8.274-20.147 10.754-30.578 7.441-1.025 5.941-3.831 11.635-8.419 16.223-11.816 11.816-30.974 11.816-42.79 0s-11.816-30.974 0-42.79c8.274-8.274 20.147-10.754 30.578-7.441 1.025-5.941 3.831-11.635 8.419-16.223 11.816-11.816 30.974-11.816 42.79 0s11.816 30.973 0 42.79z" fill="#ffb52d"/><path d="m269.979 225.633c2.037 2.038 3.723 4.294 5.058 6.693-.898 1.221-1.899 2.389-3.003 3.494-5.421 5.421-12.387 8.355-19.481 8.802-6.149.387-11.785 3.753-14.958 9.034-1.343 2.236-3.002 4.336-4.974 6.236-11.938 11.497-30.657 11.312-42.375-.409-2.037-2.038-3.723-4.294-5.058-6.693.898-1.221 1.899-2.389 3.003-3.494 6.523-6.523 15.282-9.444 23.809-8.766 3.717.296 7.256-1.852 8.707-5.287 1.544-3.657 3.84-7.071 6.887-10.009 11.934-11.506 30.662-11.324 42.385.399z" fill="#ffc14f"/><path d="m233.544 398.511h4.928c14.535 0 25.586 13.06 23.18 27.395l-14.425 85.946c-16.679-.561-32.954-2.719-48.677-6.323-1.547-.355-2.544-1.866-2.281-3.432l14.093-83.972c1.901-11.322 11.702-19.614 23.182-19.614zm-91.203-36.16c16.038 0 28.231 14.41 25.577 30.227l-15.871 94.567c-.226 1.346-1.672 2.121-2.912 1.55-15.096-6.944-29.4-15.314-42.74-24.937-1.655-1.194-2.474-3.237-2.137-5.249l12.506-74.517c2.097-12.491 12.911-21.641 25.577-21.641zm-90.767-62.436h4.6c14.635 0 25.763 13.15 23.34 27.584l-15.716 93.641c-.222 1.322-1.893 1.793-2.762.773-15.08-17.703-27.792-37.487-37.644-58.859-1.181-2.561-1.528-5.428-1.062-8.209l5.905-35.181c1.912-11.4 11.78-19.749 23.339-19.749z" fill="#ea552d"/><path d="m284.186 291.642-22.654 134.977c-2.189 13.043-13.948 22.268-27.138 21.293-.224-.017-.448-.033-.672-.05-15.026-1.125-25.848-14.907-23.354-29.767l22.664-135.037c2.371-14.126 15.744-23.656 29.87-21.285 14.125 2.37 23.655 15.743 21.284 29.869zm-99.327 0-18.26 108.797c-2.867 17.082-21.496 26.519-36.932 18.663-.16-.082-.32-.163-.48-.245-10.001-5.114-15.574-16.083-13.715-27.161l18.233-108.638c2.371-14.126 15.744-23.656 29.87-21.285 14.125 2.37 23.655 15.743 21.284 29.869zm-99.327 0-7.766 49.115c-3.738 22.275-32.247 29.168-45.893 11.169-.135-.178-.269-.355-.403-.533-4.236-5.615-5.946-12.74-4.782-19.676l7.6-48.128c2.339-13.937 15.243-23.883 29.238-21.927 14.522 2.029 24.417 15.615 22.006 29.98z" fill="#f76937"/><path d="m35.869 291.642-12.116 72.192c-14.25-30.64-22.616-64.57-23.645-100.339 4.41-1.888 38.131 14.021 35.761 28.147zm177.638 125.217-14.884 88.686c-17.318-3.966-33.966-9.688-49.747-16.968l13.478-80.303c2.097-12.492 12.91-21.642 25.577-21.642 16.037-.001 28.231 14.41 25.576 30.227zm-117.053-77.008c16.038 0 28.232 14.411 25.577 30.227l-15.713 93.626c-16.828-12.148-32.121-26.292-45.532-42.083l10.091-60.128c2.097-12.492 12.911-21.642 25.577-21.642z" fill="#d63030"/><path d="m35.769 292.236c-2.433 14.497-21.921 17.409-28.579 4.303-1.496-2.945-5.694-12.638-5.892-14.604-.612-6.086-1.012-12.236-1.19-18.44 4.329-1.853 9.211-2.55 14.196-1.768 14.247 2.234 23.852 16.286 21.465 30.509zm198.753-.594-21.307 126.954c-2.524 15.038-17.524 24.584-32.213 20.493-.167-.047-.335-.093-.502-.14-12.647-3.548-20.605-16.037-18.43-28.992l21.298-126.9c2.371-14.126 15.744-23.656 29.87-21.285s23.655 15.744 21.284 29.87zm-99.327 0-13.371 79.67c-3.266 19.461-26.299 28.062-41.612 15.616-.15-.122-.301-.245-.451-.367-7.132-5.821-10.567-15.041-9.043-24.119l13.234-78.853c2.339-13.937 15.243-23.883 29.238-21.927 14.521 2.029 24.416 15.616 22.005 29.98z" fill="#f44545"/><path d="m499.611 145.783c-9.18 12.116-34.864 8.117-57.365-8.932-2.859-2.166-5.528-4.438-7.992-6.78-4.502 12.523-12.752 20.824-21.749 20.36-10.826-.558-19.271-13.625-20.951-30.796-3.743 2.054-7.805 3.09-12.005 2.874-16.519-.851-28.922-20.74-27.702-44.423 1.088-21.121 12.643-38.125 26.847-40.955-.18-.428-.337-.867-.467-1.318-.622-2.153 75.446 72.796 124.51 96.751.546 5.096-.426 9.656-3.126 13.219z" fill="#ffc14f"/><path d="m502.816 136.95c-51.387-18.801-95.648-53.74-125.861-99.399.575-.164 9.568-24.066 26.352-28.91 16.785-4.844 32.769-.533 35.702 9.629 1.353 4.687-.307 9.8-4.136 14.425 19.746-1.035 36.021 6.277 37.256 17.245.422 3.752-.966 7.478-3.756 10.892 11.784 4.668 19.488 12.791 19.032 21.63-.267 5.177-3.292 9.821-8.203 13.471 15.579 13.067 24.552 29.152 23.614 41.017z" fill="#fff36c"/><path d="m460.349 116.769c-.96 1.464-2.558 2.259-4.187 2.259-.94 0-1.892-.265-2.736-.819-11.928-7.821-24.898-18.606-37.609-30.915.189 9.973 2.644 21.935 6.347 29.406 1.227 2.474.215 5.474-2.259 6.7-.714.354-1.471.521-2.217.521-1.841 0-3.611-1.02-4.483-2.781-5.724-11.546-8.724-30.559-6.846-43.335-6.301-6.543-12.453-13.381-18.29-20.329-1.964 10.77-1.987 23.987.283 32.782.69 2.674-.917 5.401-3.591 6.091-.419.108-.84.16-1.254.16-2.225 0-4.255-1.497-4.837-3.751-3.278-12.697-2.582-31.77 1.459-45.052-10.877-13.849-20.221-27.793-26.747-40.408-1.269-2.453-.309-5.469 2.145-6.738 2.452-1.269 5.469-.309 6.738 2.144 6.291 12.161 15.293 25.6 25.772 38.951 10.473 3.721 27.978 4.573 38.569 1.838 2.667-.69 5.4.917 6.091 3.592.69 2.674-.917 5.401-3.591 6.091-5.076 1.31-11.24 1.943-17.605 1.943-4.378 0-8.85-.299-13.13-.882 5.428 6.327 11.108 12.533 16.902 18.467 7.845 2.307 20.528 2.327 28.133-.005 2.64-.809 5.437.674 6.246 3.314.81 2.64-.675 5.437-3.314 6.246-4.751 1.457-10.805 2.181-16.889 2.181-.738 0-1.477-.011-2.213-.032 10.767 10.046 21.605 18.835 31.674 25.437 2.308 1.515 2.953 4.614 1.439 6.924z" fill="#f29500"/></g></svg>